<mxfile host="Electron" modified="2024-01-09T10:46:43.338Z" agent="Mozilla/5.0 (Macintosh; Intel Mac OS X 10_15_7) AppleWebKit/537.36 (KHTML, like Gecko) draw.io/21.6.8 Chrome/114.0.5735.289 Electron/25.5.0 Safari/537.36" etag="2rjm3ItM2Phlkl_xvuPQ" version="21.6.8" type="device">
  <diagram name="Page-1" id="EtiuexjFywVG7SFvH0tt">
    <mxGraphModel dx="1434" dy="854" grid="1" gridSize="10" guides="1" tooltips="1" connect="1" arrows="1" fold="1" page="1" pageScale="1" pageWidth="827" pageHeight="1169" math="0" shadow="0">
      <root>
        <mxCell id="0" />
        <mxCell id="1" parent="0" />
        <mxCell id="2gcxMWjhd_7XcnS0utD9-1" value="" style="rounded=1;whiteSpace=wrap;html=1;" vertex="1" parent="1">
          <mxGeometry x="360" y="260" width="290" height="230" as="geometry" />
        </mxCell>
        <mxCell id="2gcxMWjhd_7XcnS0utD9-2" value="user" style="shape=umlActor;verticalLabelPosition=bottom;verticalAlign=top;html=1;outlineConnect=0;" vertex="1" parent="1">
          <mxGeometry x="100" y="355" width="30" height="60" as="geometry" />
        </mxCell>
        <mxCell id="2gcxMWjhd_7XcnS0utD9-3" value="Search chacatert" style="ellipse;whiteSpace=wrap;html=1;" vertex="1" parent="1">
          <mxGeometry x="420" y="345" width="140" height="55" as="geometry" />
        </mxCell>
        <mxCell id="2gcxMWjhd_7XcnS0utD9-4" value="Do quiz and see answer" style="ellipse;whiteSpace=wrap;html=1;" vertex="1" parent="1">
          <mxGeometry x="430" y="280" width="120" height="50" as="geometry" />
        </mxCell>
        <mxCell id="2gcxMWjhd_7XcnS0utD9-5" value="See detail information about character" style="ellipse;whiteSpace=wrap;html=1;" vertex="1" parent="1">
          <mxGeometry x="430" y="410" width="140" height="55" as="geometry" />
        </mxCell>
        <mxCell id="2gcxMWjhd_7XcnS0utD9-6" value="" style="endArrow=none;html=1;rounded=0;entryX=0;entryY=0.5;entryDx=0;entryDy=0;" edge="1" parent="1" source="2gcxMWjhd_7XcnS0utD9-2" target="2gcxMWjhd_7XcnS0utD9-4">
          <mxGeometry width="50" height="50" relative="1" as="geometry">
            <mxPoint x="250" y="420" as="sourcePoint" />
            <mxPoint x="300" y="370" as="targetPoint" />
          </mxGeometry>
        </mxCell>
        <mxCell id="2gcxMWjhd_7XcnS0utD9-7" value="" style="endArrow=none;html=1;rounded=0;" edge="1" parent="1" source="2gcxMWjhd_7XcnS0utD9-2" target="2gcxMWjhd_7XcnS0utD9-3">
          <mxGeometry width="50" height="50" relative="1" as="geometry">
            <mxPoint x="130" y="464.81" as="sourcePoint" />
            <mxPoint x="430" y="388.81" as="targetPoint" />
          </mxGeometry>
        </mxCell>
        <mxCell id="2gcxMWjhd_7XcnS0utD9-8" value="" style="endArrow=none;html=1;rounded=0;" edge="1" parent="1" source="2gcxMWjhd_7XcnS0utD9-2" target="2gcxMWjhd_7XcnS0utD9-5">
          <mxGeometry width="50" height="50" relative="1" as="geometry">
            <mxPoint x="140" y="576" as="sourcePoint" />
            <mxPoint x="440" y="500" as="targetPoint" />
          </mxGeometry>
        </mxCell>
      </root>
    </mxGraphModel>
  </diagram>
</mxfile>
